<svg xmlns="http://www.w3.org/2000/svg" viewBox="0 0 420 96" role="img">
  <rect width="420" height="96" rx="14" fill="#ffffff"/>
  <g transform="translate(18 15)">
    <path d="M32 0 6 11v19c0 19 11 31 26 36 15-5 26-17 26-36V11L32 0Z" fill="#093b76"/>
    <path d="M32 12 18 18v12c0 10 5 18 14 22 9-4 14-12 14-22V18l-14-6Z" fill="#fff"/>
    <path d="M29 22h6v8h8v6h-8v8h-6v-8h-8v-6h8v-8Z" fill="#0c4f97"/>
  </g>
  <text x="92" y="43" font-family="Arial, Helvetica, sans-serif" font-size="28" font-weight="700" fill="#093b76">Soteria Services</text>
  <text x="94" y="66" font-family="Arial, Helvetica, sans-serif" font-size="14" fill="#52657a">Prepared Today. Protected Tomorrow.</text>
</svg>
